<svg width="22" height="16" viewBox="0 0 22 16" fill="none" xmlns="http://www.w3.org/2000/svg">
<g clip-path="url(#clip0_1_91)">
<mask id="mask0_1_91" style="mask-type:luminance" maskUnits="userSpaceOnUse" x="0" y="0" width="22" height="16">
<path d="M0.0010376 0.0012207H21.329V15.9987H0.0010376V0.0012207Z" fill="white"/>
</mask>
<g mask="url(#mask0_1_91)">
<path fill-rule="evenodd" clip-rule="evenodd" d="M-1.33313 0.0012207H22.6631V15.9987H-1.33313V0.0012207Z" fill="#199D00"/>
<path fill-rule="evenodd" clip-rule="evenodd" d="M4.7128 4.53491C4.6878 4.90985 4.65031 5.566 4.97213 5.63474C5.35645 5.67223 5.14398 4.98484 5.28459 4.85986C5.30958 4.79737 5.35645 4.79737 5.35957 4.87548V5.45976C5.35957 5.64723 5.48455 5.70348 5.57829 5.74097C5.67827 5.73472 5.74701 5.74097 5.78451 5.8347L5.8345 6.84392C5.8345 6.84392 6.06571 6.91266 6.07821 6.27839C6.08758 5.90344 6.00322 5.59412 6.05322 5.52225C6.05322 5.45039 6.14695 5.44727 6.20944 5.48164C6.30943 5.55037 6.35317 5.63786 6.50939 5.60662C6.74686 5.53788 6.89058 5.42227 6.89371 5.24105C6.88902 5.06296 6.85196 4.8872 6.78435 4.72238C6.79685 4.69113 6.74061 4.60677 6.75311 4.57553C6.79372 4.64427 6.85934 4.63802 6.87184 4.57553C6.83122 4.4443 6.76873 4.31619 6.66874 4.26308C6.58438 4.18809 6.4594 4.20059 6.41878 4.35681C6.39379 4.53491 6.48127 4.74425 6.60938 4.91922C6.6375 4.98484 6.67499 5.09732 6.65937 5.1973C6.59063 5.23792 6.52189 5.21918 6.46253 5.15981C6.46253 5.15981 6.27506 5.01921 6.27506 4.98484C6.32505 4.66614 6.28443 4.62864 6.25631 4.53803C6.23756 4.41618 6.1782 4.37556 6.13133 4.29432C6.08446 4.24433 6.02197 4.24433 5.99072 4.29432C5.90636 4.43805 5.94698 4.74737 6.00635 4.88798C6.05009 5.01608 6.11571 5.09732 6.08446 5.09732C6.05946 5.16918 6.00635 5.15044 5.96573 5.06608C5.92 4.88854 5.89794 4.70573 5.90011 4.52241C5.88449 4.37868 5.86574 4.07248 5.76888 3.99124C5.71264 3.91625 5.62828 3.95375 5.59704 4.02249C5.58879 4.16207 5.59192 4.3021 5.60641 4.44117C5.6689 4.67239 5.69077 4.8786 5.72202 5.11294C5.73139 5.42852 5.5408 5.25042 5.55017 5.09107C5.59116 4.89074 5.58796 4.68388 5.5408 4.48492C5.50955 4.40368 5.47518 4.38493 5.39707 4.39743C5.3377 4.39743 5.1846 4.56303 5.14086 4.84423C5.14086 4.84423 5.10336 4.98796 5.08774 5.11607C5.06587 5.25979 4.97213 5.36603 4.90339 5.09732C4.84715 4.90048 4.80966 4.42243 4.71592 4.53491H4.7128Z" fill="white"/>
<path fill-rule="evenodd" clip-rule="evenodd" d="M5.75949 6.06902L4.75964 6.55019C4.76902 6.3221 5.23144 5.91279 5.55015 5.90967C5.75324 5.91279 5.70325 5.98778 5.75636 6.06902H5.75949Z" fill="white"/>
<path fill-rule="evenodd" clip-rule="evenodd" d="M5.58144 6.3815C5.05652 7.74066 6.81562 7.93126 7.01246 6.43774C7.03121 6.37525 7.1062 6.31588 7.1187 6.41587C7.07808 7.76878 5.75641 7.85939 5.53145 7.43446C5.47852 7.28824 5.45207 7.13377 5.45333 6.97828C5.42209 6.7127 5.28148 6.8158 5.25961 7.07826C5.23774 7.22512 5.24399 7.26573 5.24399 7.40634C5.31273 8.47492 7.01559 8.01562 7.29367 7.13451C7.44052 6.64708 7.26867 6.28776 7.34679 6.28776C7.51551 6.46898 7.75297 6.31276 7.80609 6.25027C7.82796 6.21902 7.8842 6.19715 7.9217 6.23777C8.05293 6.33151 8.28414 6.28776 8.33413 6.12216C8.36225 5.95656 8.38412 5.78784 8.39037 5.61599C8.28102 5.64724 8.2029 5.66911 8.19353 5.71598L8.17166 5.8597C8.16228 5.90657 8.07167 5.90657 8.06542 5.84721C8.02481 5.65974 7.85608 5.63786 7.75297 5.92532C7.68736 5.98156 7.56238 5.99406 7.54988 5.9097C7.5655 5.71598 7.48739 5.69098 7.33116 5.78159L7.18119 4.65052C7.24368 4.65052 7.30617 4.69739 7.36553 4.6224C7.30304 4.4193 7.16244 4.00687 7.08433 3.97562C7.04996 3.93188 7.01871 3.96 6.96872 3.9725C6.88748 3.9975 6.8125 4.06623 6.83749 4.20371C6.93123 4.79112 6.99372 5.23793 7.09058 5.82846C7.1062 5.89407 7.04996 5.98468 6.97497 5.97531C6.84999 5.89095 6.81874 5.7191 6.60003 5.72535C6.4438 5.72535 6.26883 5.8972 6.24696 6.05967C6.21884 6.1909 6.20946 6.33151 6.24696 6.44399C6.35632 6.57522 6.48755 6.56272 6.60315 6.5346C6.69689 6.49398 6.775 6.40024 6.80937 6.42212C6.83124 6.45024 6.8125 6.76269 6.36257 7.00015C6.09073 7.12513 5.87202 7.15013 5.75641 6.92829C5.68455 6.78768 5.76266 6.25964 5.58144 6.3815Z" fill="white"/>
<path fill-rule="evenodd" clip-rule="evenodd" d="M7.82166 5.00047C7.92477 4.96297 8.4247 4.38806 8.4247 4.38806L8.34971 4.32557C8.32159 4.3037 8.32471 4.2787 8.34971 4.25683C8.47469 4.18184 8.43407 4.02562 8.37158 3.95063C8.32915 3.92995 8.28249 3.91946 8.23529 3.92001C8.1881 3.92055 8.14168 3.9321 8.09975 3.95376C8.01226 4.03812 7.99351 4.17247 8.06225 4.25371C8.12787 4.28495 8.19348 4.35369 8.14974 4.39119C7.94352 4.6099 7.38423 4.98797 7.44985 5.00047C7.46235 5.01921 7.80917 5.01921 7.81854 5.00047H7.82166ZM4.79089 7.0314C4.60342 7.33135 4.5878 7.77816 4.6909 7.91251C4.74715 7.975 4.83776 8.00312 4.90337 7.98125C5.0221 7.93126 5.07522 7.69067 5.0471 7.60631C5.00648 7.54382 4.97523 7.53445 4.93462 7.58444C4.85338 7.75316 4.81901 7.63755 4.80964 7.54382C4.80068 7.38507 4.80906 7.22582 4.83463 7.06889C4.8565 6.93766 4.83463 6.97516 4.79089 7.0314ZM12.824 6.55335C12.6428 6.15966 12.3897 5.77222 12.3116 5.62537C12.0681 5.24044 11.8096 4.86521 11.5367 4.50054C11.343 4.26933 11.8554 4.5974 11.4742 4.13498L11.1961 3.90064C11.1336 3.8569 10.9837 3.77566 10.9587 3.90689C10.9462 4.02562 10.9524 4.08811 10.9712 4.18497C10.9868 4.24746 11.0805 4.35682 11.1274 4.41931C11.768 5.26776 12.3306 6.17233 12.8084 7.12201C12.8896 7.08139 12.8709 6.61896 12.824 6.55335Z" fill="white"/>
<path fill-rule="evenodd" clip-rule="evenodd" d="M12.0273 7.85935C11.9898 7.89997 12.1148 8.07182 12.2772 8.07182C12.5459 8.04057 12.7834 7.89059 13.0021 7.49066C13.091 7.35761 13.1477 7.20571 13.1677 7.04698C13.1942 6.28847 13.1334 5.52944 12.9865 4.78483C12.9771 4.72234 12.9865 4.64735 12.9927 4.6286C13.0115 4.60673 13.0709 4.6286 13.1021 4.57549C13.149 4.52862 12.9771 4.13806 12.8834 3.9912C12.8521 3.92246 12.8365 3.87872 12.7803 3.99745C12.7124 4.12846 12.6801 4.27498 12.6865 4.42239C12.8146 5.31287 12.8553 6.09088 12.9365 6.98136C12.9459 7.06885 12.9334 7.19383 12.874 7.24382C12.6382 7.50632 12.3497 7.71607 12.0273 7.85935ZM15.6673 7.85622C15.4736 7.96871 15.4736 8.09681 15.6298 8.09994C15.8985 8.06869 16.2172 8.04682 16.436 7.71562C16.5132 7.55963 16.5579 7.38953 16.5672 7.2157C16.6065 6.46888 16.5572 5.72002 16.4203 4.9848C16.4141 4.92231 16.386 4.77546 16.3953 4.75671C16.4141 4.71297 16.5016 4.75983 16.5328 4.70984C16.5766 4.66297 16.3047 4.31303 16.2079 4.16305C16.1766 4.09431 16.1641 4.05057 16.1048 4.1693C16.0418 4.30152 16.0221 4.4502 16.0485 4.59423C16.1922 5.56283 16.2985 6.28772 16.3203 7.14384C16.3078 7.22507 16.3047 7.26882 16.2672 7.37192C16.1829 7.47816 16.0891 7.61564 16.0016 7.68125C15.9142 7.74374 15.7267 7.80623 15.6673 7.85622Z" fill="white"/>
<path fill-rule="evenodd" clip-rule="evenodd" d="M15.8106 6.99074C15.8106 6.76265 15.8138 6.56893 15.8075 6.39708C15.8055 6.25154 15.7736 6.10797 15.7138 5.97527C15.6575 5.84717 15.6919 5.74406 15.6638 5.60658C15.6388 5.4691 15.645 5.26289 15.6075 5.10354C15.595 5.04105 15.5638 4.83795 15.5732 4.81608C15.5888 4.77234 15.6482 4.81608 15.6794 4.76609C15.7232 4.71922 15.5232 4.20368 15.4232 4.05682C15.3888 3.99121 15.3201 4.01308 15.242 4.11931C15.1639 4.19118 15.192 4.35053 15.2232 4.50363C15.4138 5.51285 15.5607 6.42833 15.5294 7.38755C15.5169 7.46879 15.8106 7.14384 15.8106 6.99074ZM14.3827 5.74094C14.2609 5.73469 14.0078 5.50035 13.9328 5.36599C13.9205 5.33316 13.9153 5.29811 13.9175 5.26312C13.9196 5.22813 13.9291 5.19398 13.9453 5.1629C13.9922 5.13166 14.0609 5.10041 14.114 5.13166C14.114 5.13166 14.1671 5.20664 14.1578 5.21602C14.2203 5.24726 14.2515 5.23164 14.2578 5.20352C14.2609 5.15665 14.239 5.12853 14.239 5.07854C14.2671 4.93481 14.4265 4.91294 14.489 5.00355C14.5327 5.05979 14.5515 5.1754 14.5546 5.25351C14.5546 5.29413 14.4921 5.24726 14.4515 5.25351C14.4171 5.26601 14.4077 5.30975 14.4046 5.34725C14.3984 5.45036 14.3859 5.61596 14.3827 5.73781V5.74094ZM12.1393 7.2407C12.1706 6.9345 12.1268 6.38771 12.1237 6.20649C12.107 5.74043 12.0684 5.2754 12.0081 4.81296C11.9706 4.5505 12.1143 4.84108 12.0956 4.68798C12.0487 4.42864 11.905 4.25054 11.7331 4.01621C11.68 3.93809 11.68 3.92247 11.5957 4.03495C11.5019 4.2443 11.5832 4.39115 11.6082 4.55675C11.73 5.09416 11.8019 5.58784 11.8363 6.07838C11.8722 6.58796 11.8764 7.09929 11.8488 7.60939C11.9425 7.61252 12.0862 7.46254 12.1393 7.2407Z" fill="white"/>
<path fill-rule="evenodd" clip-rule="evenodd" d="M16.2266 6.75018C16.0111 6.38773 15.6892 6.00029 15.6017 5.85344C15.312 5.44884 15.0077 5.05489 14.6894 4.67237C14.4238 4.39117 14.8144 4.62551 14.6394 4.40679C14.4925 4.24744 14.4519 4.19432 14.3238 4.09746C14.2613 4.05685 14.2238 3.97873 14.1988 4.11309C14.1889 4.22946 14.1868 4.34638 14.1926 4.46303C14.1926 4.51615 14.2488 4.61926 14.2988 4.68175C14.9456 5.4785 15.6549 6.29087 16.2235 7.31259C16.3048 7.27197 16.2766 6.81267 16.2235 6.75018H16.2266Z" fill="white"/>
<path fill-rule="evenodd" clip-rule="evenodd" d="M6.4969 6.08466C6.48128 6.11278 6.44691 6.14715 6.45941 6.18152C6.48128 6.21276 6.50315 6.22213 6.54065 6.22213C6.57502 6.22213 6.62501 6.23151 6.63438 6.21276C6.65313 6.19089 6.66563 6.15027 6.65313 6.10965C6.61563 6.01592 6.51565 6.05341 6.4969 6.08466Z" fill="#1BA400"/>
<path fill-rule="evenodd" clip-rule="evenodd" d="M13.7337 11.3275C14.0211 11.34 14.2086 11.3432 14.4617 11.3713L14.7616 11.34C15.0928 11.3088 15.1053 11.8118 15.1053 11.8118C15.1053 12.1087 14.9897 12.1243 14.8429 12.1555C14.7585 12.168 14.7179 12.1055 14.671 12.0431C14.6004 12.0657 14.5251 12.07 14.4523 12.0556C14.3305 12.0493 14.2117 12.0493 14.093 12.0399C13.968 12.0306 13.8993 12.0556 13.7712 12.0431C13.7462 12.0837 13.7087 12.1399 13.6337 12.1243C13.5712 12.1149 13.4931 11.9368 13.515 11.7962C13.5618 11.6962 13.5462 11.7306 13.5462 11.6869C12.3714 11.6556 11.1872 11.6025 10.0374 11.6181C9.13752 11.6212 8.25015 11.6587 7.35967 11.6962C6.88474 11.69 6.5223 11.615 6.27234 11.2494C6.29733 11.2494 7.48465 11.315 7.83147 11.2932C8.472 11.2869 9.0594 11.2338 9.71243 11.2151C10.9997 11.2369 12.2776 11.2369 13.5649 11.3275C13.44 11.2432 13.44 11.0463 13.6274 10.9963C13.6431 10.9838 13.6524 11.0932 13.6806 11.0901C13.8337 11.0807 13.7649 11.2869 13.7337 11.3275ZM8.55948 4.22865C8.36576 4.78482 8.67196 5.39722 8.88443 5.33786C9.04066 5.40035 9.13439 5.10664 9.19688 4.78794C9.24375 4.69733 9.27499 4.68796 9.29687 4.73483C9.29062 5.15976 9.32811 5.25662 9.43747 5.38472C9.68118 5.57219 9.88427 5.40972 9.8999 5.3941L10.0874 5.2035C10.1311 5.15663 10.1874 5.15663 10.2467 5.19413C10.3061 5.24725 10.2967 5.33786 10.4217 5.40035C10.5279 5.44409 10.7498 5.41284 10.8029 5.32223C10.8716 5.20038 10.8904 5.15976 10.9216 5.11602C10.9716 5.0504 11.056 5.07852 11.056 5.10039C11.0466 5.13789 10.9966 5.17226 11.031 5.241C11.0935 5.28474 11.106 5.25662 11.1403 5.24724C11.2653 5.18475 11.359 4.91605 11.359 4.91605C11.3622 4.81606 11.3059 4.82231 11.2684 4.84731L11.1716 4.91292C11.1091 4.9223 10.9935 4.96291 10.9341 4.8723C10.8747 4.76607 10.8747 4.61297 10.831 4.50361C10.831 4.49736 10.7498 4.33176 10.8248 4.32239C10.8622 4.32864 10.9404 4.35051 10.9529 4.2849C10.9904 4.21928 10.8716 4.03493 10.7873 3.9412C10.7154 3.86309 10.6154 3.85371 10.5185 3.93495C10.4498 3.99744 10.4592 4.06618 10.4467 4.13179C10.4348 4.17882 10.4343 4.22798 10.4452 4.27524C10.456 4.3225 10.478 4.3665 10.5092 4.40363C10.5779 4.53486 10.6998 4.7067 10.6592 4.95042C10.6592 4.95042 10.5873 5.0629 10.4623 5.04728C10.4092 5.0379 10.3248 5.01603 10.2811 4.67858C10.2467 4.42862 10.2873 4.07243 10.1811 3.90683C10.1405 3.80372 10.1124 3.70686 10.0186 3.87871C9.99363 3.94745 9.88427 4.05056 9.96239 4.2599C10.0363 4.44855 10.0579 4.65365 10.0249 4.85356C9.97801 4.9223 9.96864 4.94417 9.90927 5.00978C9.82803 5.10352 9.73742 5.07852 9.66868 5.04415C9.60619 5.00353 9.5562 4.98166 9.52496 4.84106C9.5312 4.62234 9.5437 4.26302 9.50308 4.18804C9.44372 4.0693 9.34686 4.11305 9.30624 4.15054C9.12037 4.35702 8.99592 4.61134 8.94692 4.8848C8.89068 5.06602 8.83131 5.01291 8.7907 4.94104C8.69071 4.84731 8.68134 4.1068 8.55948 4.22865Z" fill="white"/>
<path fill-rule="evenodd" clip-rule="evenodd" d="M9.14676 5.44097C9.23737 5.37848 9.19676 5.33473 9.32798 5.46596C9.49737 5.76566 9.59571 6.10024 9.61544 6.44393C9.60919 6.52517 9.66543 6.57516 9.69355 6.55642C9.70605 6.36895 10.1654 6.10649 10.5872 6.06899C10.6497 6.05337 10.6184 5.93151 10.6278 5.86902C10.6028 5.63469 10.759 5.42222 10.9777 5.4066C11.2777 5.45034 11.3777 5.60969 11.3839 5.85028C11.3495 6.31895 10.8621 6.39707 10.5903 6.43456C10.5497 6.45018 10.5309 6.46893 10.5903 6.4908L11.7339 6.49705L11.7932 6.5283C11.7995 6.55954 11.7745 6.53454 11.7307 6.60953C11.6678 6.72005 11.6285 6.84239 11.6151 6.96885C11.2746 7.08133 10.9215 7.12508 10.5653 7.17195C10.4403 7.23444 10.3778 7.3188 10.4028 7.41253C10.4466 7.51564 10.7215 7.62188 10.7215 7.625C10.7746 7.65624 10.834 7.73436 10.7059 7.89371C10.1497 7.86871 9.71542 7.63125 9.56545 7.29693C9.5217 7.26256 9.47171 7.29693 9.44047 7.34067C9.22175 7.62187 9.00928 7.87184 8.63747 8.00931C8.41875 8.06556 8.19066 7.97495 8.08443 7.83122C8.01257 7.74686 8.01569 7.65624 7.99069 7.6375C7.86884 7.69061 6.83775 8.12805 6.96898 7.92183C7.21894 7.65624 7.65637 7.45628 8.03756 7.19382C8.06568 7.10321 8.11567 6.80325 8.26565 6.70639C8.27502 6.70639 8.24378 6.88137 8.2469 6.95635C8.2469 7.01884 8.24065 7.04072 8.25315 7.02509C8.28127 7.00947 8.7437 6.6439 8.78432 6.53142C8.82806 6.46893 8.79369 6.30646 8.79369 6.30021C8.70621 6.07524 8.58435 6.05649 8.54061 5.94401C8.49999 5.79716 8.51874 5.62844 8.6031 5.57844C8.67809 5.51283 8.76557 5.51908 8.84993 5.59407C8.94367 5.67843 9.02491 5.84403 9.0499 5.96588C9.03428 6.01275 8.92492 5.93464 8.89368 5.95651C8.95382 6.02562 8.99381 6.10993 9.00928 6.20022C9.07177 6.45643 9.05303 6.55642 8.99054 6.72202C8.78432 7.15632 8.52186 7.28443 8.29065 7.4469C8.2844 7.4469 8.28127 7.55626 8.36563 7.61563C8.39688 7.64687 8.51874 7.66249 8.65934 7.61563C8.95972 7.44881 9.20262 7.19502 9.35611 6.88761C9.38265 6.6537 9.35704 6.41681 9.28112 6.19397C9.19051 5.98463 9.08427 5.6878 9.08427 5.68155C9.08115 5.55032 9.09052 5.50658 9.14676 5.44097ZM6.15348 4.2349C6.28471 4.29739 6.53467 4.26927 6.52217 4.05681L6.51592 3.95995C6.49093 3.89746 6.41594 3.91308 6.40032 3.97557C6.39407 3.99744 6.40969 4.03181 6.39094 4.04118C6.37845 4.05368 6.33783 4.04743 6.33783 3.98807C6.33783 3.96932 6.32533 3.95057 6.31596 3.93808C6.30971 3.93183 6.30346 3.93183 6.28784 3.93183C6.26909 3.93183 6.26909 3.93495 6.25971 3.95057C6.25659 3.9662 6.25034 3.98182 6.25034 4.00057C6.25034 4.02244 6.23784 4.02869 6.22534 4.03181C6.2066 4.03181 6.20972 4.03181 6.1941 4.02556C6.18785 4.01619 6.17848 4.01306 6.17848 3.99432L6.1691 3.94432C6.16285 3.93495 6.15036 3.9287 6.13786 3.92558C6.06599 3.92558 6.05975 4.00994 6.06599 4.04118C6.05975 4.04743 6.05662 4.19429 6.15348 4.2349Z" fill="white"/>
<path fill-rule="evenodd" clip-rule="evenodd" d="M10.0115 5.86591C10.1427 5.9284 10.4583 5.89403 10.3802 5.69094L10.3739 5.59095C10.3458 5.52846 10.274 5.54409 10.2583 5.6097C10.2521 5.62845 10.2677 5.66282 10.2458 5.67219C10.2365 5.68469 10.1927 5.67844 10.1958 5.6222C10.1958 5.60345 10.1833 5.58158 10.174 5.56908C10.1646 5.56596 10.1615 5.56283 10.1427 5.56283C10.1271 5.56283 10.1271 5.56908 10.1177 5.5847C10.1115 5.60033 10.1084 5.61595 10.1084 5.6347C10.1052 5.65344 10.0959 5.65969 10.0802 5.66594C10.0646 5.66594 10.0677 5.66594 10.0552 5.65657C10.0459 5.64719 10.0365 5.64407 10.0365 5.62845L10.0271 5.57845C10.0209 5.56908 10.0084 5.56283 9.99588 5.55971C9.92401 5.55971 9.91776 5.64094 9.92089 5.67219C9.91776 5.67844 9.91464 5.82842 10.0146 5.86591H10.0115ZM12.2611 5.19102C12.3924 5.25351 12.6392 5.22538 12.6298 5.01604L12.6236 4.91606C12.5955 4.85357 12.5236 4.86919 12.508 4.93168C12.5017 4.95355 12.5174 4.98792 12.4955 5.00042C12.4861 5.00979 12.4424 5.00354 12.4455 4.94418C12.4455 4.92543 12.433 4.90668 12.4236 4.89419C12.4142 4.88794 12.4111 4.88794 12.3924 4.88794C12.3768 4.88794 12.3768 4.89419 12.3674 4.90981L12.358 4.95668C12.3549 4.97855 12.3455 4.98792 12.3299 4.98792C12.3143 4.98792 12.3174 4.98792 12.3049 4.98167C12.2955 4.9723 12.2861 4.96917 12.2861 4.95355C12.2861 4.93793 12.283 4.91293 12.2768 4.90044C12.2705 4.89106 12.258 4.88794 12.2455 4.88481C12.1737 4.88481 12.1674 4.96605 12.1705 4.9973C12.1674 5.00354 12.1643 5.1504 12.2643 5.19102H12.2611ZM13.4266 6.88762C13.1985 7.14696 13.2985 7.57502 13.3516 7.66875C13.4266 7.81873 13.486 7.91559 13.6328 7.99058C13.7672 8.08744 13.8734 8.02807 13.9296 7.95933C14.064 7.81873 14.0671 7.45941 14.1296 7.39067C14.1733 7.25944 14.2858 7.28131 14.3389 7.34068C14.3886 7.41122 14.4553 7.46816 14.5327 7.50628C14.6576 7.61564 14.8076 7.63751 14.9576 7.53752C15.0576 7.47816 15.1232 7.40629 15.1826 7.25944C15.2451 7.08447 15.2138 6.2721 15.1982 5.79092L15.067 5.11915C15.067 5.1129 15.0513 4.80045 15.0357 4.72859C15.0357 4.69734 15.0263 4.68797 15.0576 4.69109C15.092 4.72234 15.0951 4.72234 15.1201 4.73171C15.1513 4.73796 15.1826 4.6786 15.1607 4.6286L14.8482 4.04744C14.8232 4.02245 14.7889 3.99745 14.7483 4.05369C14.7243 4.07539 14.7052 4.10193 14.6923 4.13156C14.6794 4.16118 14.6729 4.19322 14.6733 4.22554C14.6826 4.36302 14.7045 4.50362 14.7139 4.6411L14.8389 5.34724C14.8795 5.84716 14.8889 6.2596 14.9295 6.76264C14.9232 6.97511 14.8576 7.15946 14.7951 7.18758C14.7951 7.18758 14.7014 7.24069 14.6389 7.18133C14.592 7.16258 14.4077 6.872 14.4077 6.872C14.314 6.78764 14.2515 6.80951 14.1858 6.872C13.9984 7.05322 13.9171 7.38442 13.789 7.61564C13.7578 7.66875 13.6641 7.70937 13.5641 7.61251C13.3079 7.25944 13.4578 6.75952 13.4266 6.88762ZM12.3205 3.95996C12.4392 4.00683 12.5205 4.24741 12.4955 4.36614C12.4705 4.50675 12.408 4.66297 12.3643 4.64423C12.3143 4.62548 12.3955 4.5005 12.3486 4.36927C12.3236 4.28178 12.1612 4.12556 12.1799 4.08181C12.1487 3.98495 12.2486 3.94121 12.3205 3.95683V3.95996Z" fill="white"/>
<path fill-rule="evenodd" clip-rule="evenodd" d="M13.8083 7.03135C13.8301 6.74389 13.7895 6.56892 13.7833 6.4002C13.777 6.23147 13.5927 4.94417 13.5552 4.81919C13.5083 4.57548 13.7333 4.78795 13.7083 4.64422C13.6302 4.46925 13.4396 4.20991 13.3802 4.05681C13.3427 3.99432 13.3583 3.93183 13.2771 4.04119C13.2071 4.23293 13.1825 4.43826 13.2052 4.64109C13.3989 5.65031 13.5958 6.48768 13.5645 7.44691C13.6583 7.44691 13.7614 7.23756 13.8083 7.03135ZM15.8204 4.36614C15.9298 4.41925 15.9923 4.71921 15.9798 4.80357C15.9579 4.9598 15.9017 5.12852 15.8611 5.10665C15.8142 5.0879 15.8704 4.87543 15.8486 4.80982C15.8236 4.71608 15.6767 4.54736 15.6923 4.49737C15.6611 4.39113 15.7548 4.34739 15.8204 4.36614ZM7.83107 6.48768C7.93418 6.5283 7.99667 6.74702 7.98729 6.80951C7.9623 6.92511 7.90918 7.05009 7.86856 7.03135C7.82794 7.01885 7.87793 6.86262 7.85919 6.81263C7.84981 6.69702 7.70609 6.63453 7.70921 6.58454C7.68421 6.49081 7.7717 6.47518 7.83419 6.48768H7.83107Z" fill="white"/>
<path fill-rule="evenodd" clip-rule="evenodd" d="M10.3185 6.81894C10.4497 6.82519 10.5153 6.93142 10.3935 6.97516C10.2685 7.01578 10.1529 7.05015 10.1497 7.22512C10.1966 7.47508 10.0873 7.3876 10.0248 7.35635C9.94978 7.30011 9.73731 7.16888 9.70606 6.88768C9.70294 6.82206 9.75606 6.7627 9.84042 6.7627C9.9654 6.79706 10.1529 6.80019 10.3185 6.81894Z" fill="#1B9D00"/>
<path fill-rule="evenodd" clip-rule="evenodd" d="M5.08502 3.88809C5.235 3.93184 5.24437 4.1568 5.235 4.22241C5.21312 4.34115 5.16001 4.46925 5.12251 4.45363C5.07877 4.43801 5.12251 4.27553 5.10064 4.22554C5.07877 4.1568 4.95066 4.02557 4.96316 3.98808C4.93504 3.90996 5.02565 3.87247 5.08502 3.88809ZM8.08143 4.93793C7.96269 5.00042 7.91895 5.18789 7.99081 5.30037C8.05955 5.39411 8.16579 5.35974 8.17829 5.35974C8.29389 5.37223 8.36263 5.14415 8.36263 5.14415C8.36263 5.14415 8.36576 5.08166 8.2314 5.20351C8.17204 5.21288 8.16891 5.19101 8.15329 5.15977C8.13898 5.10028 8.14447 5.03776 8.16891 4.98167C8.19078 4.92543 8.14704 4.90043 8.08143 4.93793ZM8.95629 3.80061C8.8938 3.84122 8.77819 3.96308 8.77507 4.10056C8.77194 4.17867 8.75632 4.17867 8.80631 4.22554C8.84693 4.28178 8.8813 4.27866 8.95629 4.23804C8.97497 4.22627 8.99101 4.21076 9.00338 4.19247C9.01575 4.17418 9.02419 4.15352 9.02815 4.1318C9.0469 4.04432 8.93442 4.17555 8.92192 4.07556C8.89692 3.98183 8.96879 3.94433 9.03753 3.85685C9.03753 3.79436 9.03753 3.75374 8.95316 3.80061H8.95629ZM9.65618 3.92559C9.62863 4.03936 9.6119 4.15548 9.60619 4.27241C9.58744 4.35989 9.69992 4.39739 9.74679 4.28491C9.82178 4.08181 9.82178 3.99433 9.82803 3.90996C9.80616 3.77561 9.71555 3.77873 9.65618 3.92559ZM14.093 6.18461C14.1055 6.16899 14.7179 5.73468 14.7179 5.73468C14.7804 5.71281 14.7648 5.95964 14.7366 5.95652C14.5467 6.13956 14.3283 6.29046 14.0899 6.40332C14.0586 6.4252 14.0305 6.23772 14.0899 6.18461H14.093ZM14.646 6.17836C14.7554 6.23148 14.7991 6.54705 14.7866 6.63141C14.7866 6.80014 14.6835 6.93137 14.6398 6.91262C14.596 6.89075 14.646 6.70328 14.6242 6.63766C14.5992 6.54393 14.5085 6.37208 14.5242 6.32209C14.4929 6.21585 14.5804 6.15961 14.6491 6.17836H14.646ZM11.0216 7.5344C11.0723 7.47524 11.1312 7.42368 11.1966 7.3813C11.2591 7.35005 11.3153 7.40629 11.3122 7.40317C11.3215 7.46566 11.2747 7.51877 11.2903 7.60001C11.3028 7.63126 11.3122 7.66875 11.3715 7.65625C11.4684 7.57814 11.559 7.57189 11.6527 7.56877C11.7309 7.57189 11.734 7.7 11.684 7.7C11.5059 7.73749 11.4278 7.78748 11.2997 7.83435C11.2372 7.87184 11.1872 7.82498 11.1872 7.82185C11.1872 7.81873 11.1528 7.78748 11.1747 7.70625C11.1809 7.64376 11.1559 7.60626 11.0997 7.61251C11.0622 7.63751 11.0247 7.65 11.006 7.60314C10.9966 7.57189 10.9935 7.55314 11.0216 7.5344ZM15.2897 7.70312C15.3147 7.73437 15.3334 7.76561 15.2865 7.82185L15.1709 7.92184C15.1522 7.95308 15.1397 8.00932 15.2022 8.02495C15.3147 8.05619 15.5771 7.88434 15.5771 7.88122C15.6209 7.84997 15.6084 7.78748 15.6021 7.78748C15.5771 7.75936 15.5209 7.77811 15.4834 7.77186C15.4646 7.77186 15.4053 7.76561 15.4334 7.70937C15.4544 7.68176 15.4712 7.65124 15.4834 7.61876C15.499 7.58126 15.4834 7.55627 15.4209 7.5344C15.3553 7.5219 15.3272 7.52815 15.2553 7.5344C15.2178 7.54065 15.2053 7.55939 15.1959 7.60626C15.1991 7.67812 15.2428 7.675 15.2897 7.7V7.70312Z" fill="white"/>
<path fill-rule="evenodd" clip-rule="evenodd" d="M11.043 5.92839C11.0274 5.95964 10.9712 5.95964 10.9181 5.92839C10.8649 5.89715 10.8337 5.84715 10.8524 5.81903C10.8712 5.79091 10.9243 5.79091 10.9774 5.81903C11.0305 5.84715 11.0587 5.90027 11.043 5.92839ZM8.26223 4.25365C8.23098 4.26303 8.18724 4.23491 8.16849 4.19116C8.14975 4.14742 8.15912 4.10992 8.19036 4.10055C8.22161 4.09118 8.26223 4.12242 8.2841 4.16304C8.30597 4.20366 8.29347 4.2474 8.2591 4.25678L8.26223 4.25365Z" fill="#259F00"/>
<path fill-rule="evenodd" clip-rule="evenodd" d="M13.7645 11.7181C14.0582 11.7306 14.3332 11.7181 14.6238 11.7338C14.6769 11.7806 14.6394 11.89 14.605 11.8837L14.3613 11.8744C14.3582 11.7806 14.1207 11.7963 14.127 11.8775C13.9989 11.8931 13.8833 11.8744 13.752 11.8681C13.7145 11.8212 13.7208 11.7369 13.7645 11.7181Z" fill="#209000"/>
</g>
</g>
<defs>
<clipPath id="clip0_1_91">
<rect width="21.33" height="15.9975" fill="white" transform="translate(0 0.0012207)"/>
</clipPath>
</defs>
</svg>
