<svg width="14" height="12" viewBox="0 0 14 12" fill="none" xmlns="http://www.w3.org/2000/svg">
<g clip-path="url(#clip0_46_2154)">
<path d="M2.91713 5.83231C2.34037 5.83231 1.77656 5.66128 1.297 5.34085C0.817445 5.02042 0.443674 4.56498 0.222957 4.03212C0.00224009 3.49926 -0.0555095 2.91292 0.057011 2.34724C0.169531 1.78156 0.447268 1.26195 0.8551 0.854123C1.26293 0.446292 1.78254 0.168555 2.34822 0.0560344C2.9139 -0.0564861 3.50024 0.00126352 4.0331 0.22198C4.56595 0.442697 5.0214 0.816468 5.34183 1.29603C5.66226 1.77559 5.83329 2.3394 5.83329 2.91616C5.83243 3.6893 5.52491 4.43054 4.97822 4.97724C4.43152 5.52394 3.69028 5.83145 2.91713 5.83231ZM2.91713 0.875904C2.51338 0.875743 2.11865 0.995334 1.78287 1.21955C1.4471 1.44376 1.18536 1.76252 1.03078 2.13551C0.876194 2.5085 0.835706 2.91896 0.914435 3.31496C0.993164 3.71096 1.18757 4.07472 1.47307 4.36022C1.75857 4.64572 2.12232 4.84013 2.51833 4.91885C2.91433 4.99758 3.32479 4.9571 3.69778 4.80251C4.07077 4.64793 4.38953 4.38619 4.61374 4.05042C4.83796 3.71464 4.95755 3.31991 4.95738 2.91616C4.95674 2.37517 4.7416 1.85652 4.35915 1.4739C3.97669 1.09129 3.45812 0.876764 2.91713 0.875904Z" fill="#FFDDDD"/>
<path d="M12.2489 4.43057H5.10439C5.04769 4.43412 4.99085 4.42601 4.93739 4.40675C4.88393 4.38749 4.835 4.35748 4.79359 4.31858C4.75217 4.27968 4.71916 4.23271 4.69659 4.18056C4.67403 4.12841 4.6624 4.07219 4.6624 4.01537C4.6624 3.95855 4.67403 3.90233 4.69659 3.85018C4.71916 3.79803 4.75217 3.75106 4.79359 3.71215C4.835 3.67325 4.88393 3.64324 4.93739 3.62398C4.99085 3.60472 5.04769 3.59662 5.10439 3.60017H12.2489C12.3611 3.60513 12.4731 3.58733 12.5781 3.54783C12.6832 3.50834 12.7792 3.44797 12.8603 3.37037C12.9414 3.29278 13.006 3.19955 13.0501 3.09633C13.0942 2.9931 13.1169 2.88202 13.1169 2.76977C13.1169 2.65752 13.0942 2.54643 13.0501 2.44321C13.006 2.33998 12.9414 2.24676 12.8603 2.16916C12.7792 2.09156 12.6832 2.0312 12.5781 1.9917C12.4731 1.95221 12.3611 1.9344 12.2489 1.93937H4.92321C4.8665 1.94292 4.80966 1.93481 4.7562 1.91555C4.70275 1.89629 4.6538 1.86628 4.61239 1.82738C4.57097 1.78848 4.53797 1.7415 4.51541 1.68935C4.49285 1.6372 4.4812 1.58098 4.4812 1.52416C4.4812 1.46734 4.49285 1.41113 4.51541 1.35898C4.53797 1.30683 4.57097 1.25985 4.61239 1.22095C4.6538 1.18205 4.70275 1.15204 4.7562 1.13278C4.80966 1.11352 4.8665 1.10542 4.92321 1.10897H12.2489C12.4739 1.09783 12.6988 1.13253 12.9099 1.21095C13.121 1.28937 13.314 1.40987 13.4772 1.56515C13.6403 1.72043 13.7702 1.90724 13.859 2.11424C13.9478 2.32125 13.9935 2.54413 13.9935 2.76936C13.9935 2.99459 13.9478 3.21747 13.859 3.42448C13.7702 3.63148 13.6403 3.81829 13.4772 3.97357C13.314 4.12885 13.121 4.24935 12.9099 4.32777C12.6988 4.40619 12.4739 4.4417 12.2489 4.43057Z" fill="#FFDDDD"/>
<path d="M11.0829 11.8118C10.5061 11.8118 9.94233 11.6408 9.46277 11.3203C8.98322 10.9999 8.60944 10.5445 8.38872 10.0116C8.168 9.47876 8.11026 8.89241 8.22278 8.32673C8.33531 7.76105 8.61305 7.24145 9.02088 6.83362C9.42871 6.42579 9.94831 6.14805 10.514 6.03553C11.0797 5.92301 11.666 5.98075 12.1989 6.20147C12.7317 6.42218 13.1872 6.79596 13.5076 7.27552C13.828 7.75508 13.9991 8.31887 13.9991 8.89564C13.9982 9.66878 13.6907 10.41 13.144 10.9567C12.5973 11.5034 11.856 11.8109 11.0829 11.8118ZM11.0829 6.85539C10.6792 6.85539 10.2846 6.97509 9.94896 7.19937C9.6133 7.42364 9.35169 7.74241 9.19721 8.11537C9.04272 8.48833 9.0023 8.89873 9.08106 9.29466C9.15981 9.69059 9.3542 10.0543 9.63965 10.3397C9.92509 10.6251 10.2888 10.8196 10.6847 10.8983C11.0806 10.9771 11.491 10.9366 11.864 10.7822C12.2369 10.6277 12.5557 10.3661 12.78 10.0304C13.0043 9.69476 13.124 9.30014 13.124 8.89645C13.1235 8.35519 12.9084 7.83619 12.5257 7.45338C12.1431 7.07057 11.6242 6.85522 11.0829 6.85458V6.85539Z" fill="#FFDDDD"/>
<path d="M8.89605 10.3606H1.7507C1.52831 10.3786 1.30459 10.3504 1.09365 10.2776C0.882714 10.2049 0.689132 10.0892 0.52511 9.93798C0.361087 9.78672 0.230181 9.60313 0.140645 9.39876C0.0511082 9.19439 0.00488281 8.97368 0.00488281 8.75056C0.00488281 8.52744 0.0511082 8.30673 0.140645 8.10236C0.230181 7.89799 0.361087 7.71438 0.52511 7.56311C0.689132 7.41185 0.882714 7.29621 1.09365 7.22348C1.30459 7.15075 1.52831 7.12251 1.7507 7.14054H9.07643C9.13385 7.13278 9.19227 7.13739 9.24777 7.15407C9.30326 7.17075 9.35454 7.19911 9.39817 7.23724C9.4418 7.27537 9.47676 7.3224 9.50072 7.37516C9.52468 7.42792 9.53708 7.48521 9.53708 7.54315C9.53708 7.6011 9.52468 7.65836 9.50072 7.71112C9.47676 7.76388 9.4418 7.81091 9.39817 7.84904C9.35454 7.88717 9.30326 7.91553 9.24777 7.93221C9.19227 7.94889 9.13385 7.9535 9.07643 7.94575H1.7507C1.63932 7.93638 1.52721 7.95022 1.42147 7.98641C1.31572 8.0226 1.21863 8.08035 1.13635 8.15599C1.05407 8.23164 0.98839 8.32356 0.943461 8.4259C0.898531 8.52824 0.875332 8.63879 0.875332 8.75056C0.875332 8.86233 0.898531 8.97288 0.943461 9.07522C0.98839 9.17756 1.05407 9.26945 1.13635 9.3451C1.21863 9.42075 1.31572 9.47849 1.42147 9.51468C1.52721 9.55087 1.63932 9.56472 1.7507 9.55535H8.89524C8.95266 9.54759 9.01108 9.55223 9.06657 9.56891C9.12206 9.58559 9.17335 9.61395 9.21697 9.65208C9.2606 9.69021 9.29557 9.73724 9.31953 9.79C9.34349 9.84276 9.35588 9.90002 9.35588 9.95797C9.35588 10.0159 9.34349 10.0732 9.31953 10.1259C9.29557 10.1787 9.2606 10.2257 9.21697 10.2639C9.17335 10.302 9.12206 10.3303 9.06657 10.347C9.01108 10.3637 8.95347 10.3683 8.89605 10.3606Z" fill="#FFDDDD"/>
</g>
<defs>
<clipPath id="clip0_46_2154">
<rect width="13.9982" height="11.8125" fill="white" transform="translate(0.000976562)"/>
</clipPath>
</defs>
</svg>
