<svg width="20" height="14" viewBox="0 0 20 14" fill="none" xmlns="http://www.w3.org/2000/svg">
<path fill-rule="evenodd" clip-rule="evenodd" d="M19.0337 11.6298L17.5656 11.6232C17.437 11.6232 17.3312 11.5174 17.3312 11.3888C17.3312 10.5458 16.6444 9.85884 15.8012 9.85884C14.9581 9.85884 14.2712 10.5457 14.2712 11.3888C14.2712 11.5174 14.1654 11.6232 14.0368 11.6232H7.58339C7.4532 11.6232 7.34902 11.5174 7.34902 11.3888C7.34902 10.5458 6.66218 9.85884 5.81901 9.85884C4.97596 9.85884 4.289 10.5457 4.289 11.3888C4.289 11.5174 4.18482 11.6232 4.05463 11.6232H2.69232C1.83075 11.6804 1.62134 10.5978 1.62134 10.3797V8.31266C1.62134 8.18411 1.72552 8.07829 1.85571 8.07829H11.0206C11.3363 8.07829 11.5936 7.82117 11.5936 7.50535V2.47119C11.5936 2.341 11.6994 2.23682 11.8279 2.23682H16.6799C16.7628 2.23682 16.8377 2.28076 16.8817 2.35072L19.9659 7.49223C19.9872 7.52809 20.0002 7.57039 20.0002 7.6127L19.9985 10.4073C19.9584 10.683 19.745 11.6297 19.0334 11.6297L19.0337 11.6298ZM2.09032 10.3619C2.12021 10.5569 2.26915 11.2107 2.63724 11.1578L3.83361 11.1545C3.94916 10.1617 4.79549 9.39009 5.81925 9.39009C6.843 9.39009 7.68769 10.1632 7.80488 11.1545H13.8156C13.9311 10.1617 14.7774 9.39009 15.8012 9.39009C16.8233 9.39009 17.6696 10.1632 17.7868 11.1545L18.9831 11.1578C19.3603 11.216 19.5206 10.4854 19.53 10.3619V7.67961L16.5466 2.70733H12.0626V7.50547C12.0626 8.08004 11.5954 8.54715 11.0209 8.54715H2.09021V10.3619H2.09032Z" fill="#FFDDDD"/>
<path fill-rule="evenodd" clip-rule="evenodd" d="M19.7649 10.035H18.9316C18.624 10.035 18.3733 9.79737 18.3733 9.5044V8.71666C18.3733 8.42369 18.624 8.18604 18.9316 8.18604H19.7649C19.8935 8.18604 19.9993 8.29186 19.9993 8.42041V9.80065C19.9993 9.93085 19.8935 10.035 19.7649 10.035ZM18.9316 8.65479C18.8811 8.65479 18.8437 8.68736 18.8437 8.71666V9.5044C18.8437 9.6121 19.3267 9.56628 19.5289 9.56628V8.65479H18.9316Z" fill="#FFDDDD"/>
<path fill-rule="evenodd" clip-rule="evenodd" d="M19.387 7.21722H13.6301C13.5016 7.21722 13.3958 7.11304 13.3958 6.98285V3.85791C13.3958 3.72772 13.5016 3.62354 13.6301 3.62354H17.512C17.5949 3.62354 17.6698 3.66748 17.7138 3.73744L19.5888 6.86249C19.6827 7.01718 19.5704 7.21734 19.387 7.21734V7.21722ZM13.8645 6.74847H18.9719L17.3785 4.09217H13.8645V6.74847Z" fill="#FFDDDD"/>
<path fill-rule="evenodd" clip-rule="evenodd" d="M5.81931 13.3862C4.7174 13.3862 3.82056 12.4893 3.82056 11.3874C3.82056 10.2855 4.7174 9.38867 5.81931 9.38867C6.92123 9.38867 7.81807 10.2855 7.81807 11.3874C7.81807 12.4893 6.92123 13.3862 5.81931 13.3862ZM5.81931 9.85754C4.97626 9.85754 4.28931 10.5444 4.28931 11.3875C4.28931 12.2306 4.97615 12.9176 5.81931 12.9176C6.66236 12.9176 7.34932 12.2307 7.34932 11.3875C7.34932 10.5445 6.66248 9.85754 5.81931 9.85754Z" fill="#FFDDDD"/>
<path fill-rule="evenodd" clip-rule="evenodd" d="M15.8017 13.3862C14.6998 13.3862 13.803 12.4893 13.803 11.3874C13.803 10.2855 14.6998 9.38867 15.8017 9.38867C16.9037 9.38867 17.8005 10.2855 17.8005 11.3874C17.8005 12.4893 16.9037 13.3862 15.8017 13.3862ZM15.8017 9.85754C14.9587 9.85754 14.2717 10.5444 14.2717 11.3875C14.2717 12.2306 14.9586 12.9176 15.8017 12.9176C16.6448 12.9176 17.3317 12.2307 17.3317 11.3875C17.3317 10.5445 16.6449 9.85754 15.8017 9.85754Z" fill="#FFDDDD"/>
<path fill-rule="evenodd" clip-rule="evenodd" d="M1.04095 8.54554C0.466379 8.54554 -0.000732422 8.07843 -0.000732422 7.50386V1.65594C-0.000732422 1.08137 0.466379 0.614258 1.04095 0.614258H11.023C11.5976 0.614258 12.0647 1.08137 12.0647 1.65594V7.50386C12.0647 8.07843 11.5976 8.54554 11.023 8.54554H1.04095ZM1.04095 1.08453C0.725247 1.08453 0.468019 1.34164 0.468019 1.65747V7.50538C0.468019 7.82108 0.72513 8.07831 1.04095 8.07831H11.023C11.3387 8.07831 11.5943 7.8212 11.5943 7.50702V1.65582C11.5943 1.34012 11.3372 1.08289 11.023 1.08289H1.04095V1.08453Z" fill="#FFDDDD"/>
<path fill-rule="evenodd" clip-rule="evenodd" d="M15.802 12.5107C15.1835 12.5107 14.679 12.0077 14.679 11.3877C14.679 10.7691 15.1819 10.2646 15.802 10.2646C16.4221 10.2646 16.925 10.7676 16.925 11.3877C16.9233 12.0062 16.4204 12.5107 15.802 12.5107ZM15.802 10.7349C14.9408 10.7349 14.9413 12.0419 15.802 12.0419C16.6652 12.0419 16.662 10.7349 15.802 10.7349Z" fill="#FFDDDD"/>
<path fill-rule="evenodd" clip-rule="evenodd" d="M5.81955 12.5107C5.20103 12.5107 4.69653 12.0077 4.69653 11.3877C4.69653 10.7691 5.1995 10.2646 5.81955 10.2646C6.43806 10.2646 6.94256 10.7676 6.94256 11.3877C6.94256 12.0062 6.43795 12.5107 5.81955 12.5107ZM5.81955 10.7349C4.95833 10.7349 4.95892 12.0419 5.81955 12.0419C6.68111 12.0419 6.68029 10.7349 5.81955 10.7349Z" fill="#FFDDDD"/>
<path fill-rule="evenodd" clip-rule="evenodd" d="M15.9368 8.26416H14.4248C14.1166 8.26416 14.1166 7.79541 14.4248 7.79541H15.9368C16.2443 7.79541 16.2461 8.26416 15.9368 8.26416Z" fill="#FFDDDD"/>
<path fill-rule="evenodd" clip-rule="evenodd" d="M7.97096 6.75539H4.08911C3.95892 6.75539 3.85474 6.65121 3.85474 6.52101V2.63916C3.85474 2.50897 3.95892 2.40479 4.08911 2.40479H7.97096C8.10116 2.40479 8.20534 2.50897 8.20534 2.63916V6.52101C8.20534 6.65121 8.10116 6.75539 7.97096 6.75539ZM4.32349 6.28664H7.73659V2.87354H4.32349V6.28664Z" fill="#FFDDDD"/>
<path fill-rule="evenodd" clip-rule="evenodd" d="M7.97144 3.78955H4.08959C3.78068 3.78955 3.78068 3.3208 4.08959 3.3208H7.97144C8.28035 3.3208 8.28035 3.78955 7.97144 3.78955Z" fill="#FFDDDD"/>
<path fill-rule="evenodd" clip-rule="evenodd" d="M5.52857 5.15022C5.3986 5.15022 5.29419 5.04522 5.29419 4.91585V3.55518C5.29419 3.42498 5.39837 3.3208 5.52857 3.3208H6.46115C6.59134 3.3208 6.69552 3.42498 6.69552 3.55518V4.91585C6.69552 5.11659 6.45927 5.22358 6.3081 5.09327L5.99556 4.82303C5.84556 4.95264 5.66814 5.15022 5.52845 5.15022H5.52857ZM5.99404 4.27787C6.0988 4.27787 6.15072 4.33811 6.22513 4.40327V3.78967H5.7613V4.40327C5.83466 4.33905 5.88915 4.27787 5.99404 4.27787Z" fill="#FFDDDD"/>
<path fill-rule="evenodd" clip-rule="evenodd" d="M10.6812 3.50342H9.47191C9.16301 3.50342 9.16301 3.03467 9.47191 3.03467H10.6812C10.9889 3.03467 10.9909 3.50342 10.6812 3.50342Z" fill="#FFDDDD"/>
<path fill-rule="evenodd" clip-rule="evenodd" d="M10.6812 2.6211H9.47191C9.16301 2.6211 9.16301 2.15234 9.47191 2.15234H10.6812C10.9889 2.15234 10.9909 2.6211 10.6812 2.6211Z" fill="#FFDDDD"/>
<path fill-rule="evenodd" clip-rule="evenodd" d="M2.59072 6.12549H1.38134C1.07243 6.12549 1.07243 5.65674 1.38134 5.65674H2.59072C2.89963 5.65674 2.89963 6.12549 2.59072 6.12549Z" fill="#FFDDDD"/>
<path fill-rule="evenodd" clip-rule="evenodd" d="M2.59072 7.00733H1.38134C1.07243 7.00733 1.07243 6.53857 1.38134 6.53857H2.59072C2.89963 6.53857 2.89963 7.00733 2.59072 7.00733Z" fill="#FFDDDD"/>
</svg>
